<?xml version="1.0" standalone="no"?><!DOCTYPE svg PUBLIC "-//W3C//DTD SVG 1.1//EN" "http://www.w3.org/Graphics/SVG/1.1/DTD/svg11.dtd"><svg t="1637558694365" class="icon" viewBox="0 0 1024 1024" version="1.1" xmlns="http://www.w3.org/2000/svg" p-id="2567" xmlns:xlink="http://www.w3.org/1999/xlink" width="128" height="128"><defs><style type="text/css"></style></defs><path d="M907.99 156.48c-14.28-13.65-34.69-21.14-55.22-19.98l-57.87 4.11v-54.2c0-22.41-17.54-40.37-38.86-40.37-0.73 0-1.46 0.02-2.2 0.06L131.41 81.99c-20.61 1.19-36.74 18.88-36.74 40.31v731.01c0 21.43 16.13 39.12 36.74 40.31l622.43 35.89c0.74 0.04 1.47 0.06 2.2 0.06 21.32 0 38.86-17.96 38.86-40.37V835l57.95 4.11c1.2 0.06 2.37 0.1 3.57 0.1 19.49 0 38.12-7.22 51.57-20.08 12.9-12.33 20-28.67 20-46.02v-570.6c0.01-17.36-7.09-33.69-20-46.03zM734.66 868.06l-579.75-33.42V140.97l579.75-33.42v760.51z m131.72-92.49c-2.43 2.31-6.59 3.29-10.75 3.37l-60.74-4.31V200.97l60.66-4.31c4.65-0.08 8.39 1.08 12.2 5.84l-1.37 573.07z" fill="#888888" p-id="2568"></path><path d="M325.65 642.37c11.08 6.47 23.26 9.71 35.47 9.71 11.82 0 23.65-3.04 34.47-9.12l166.8-93.89c22.43-12.63 35.81-35.53 35.81-61.26 0-25.73-13.37-48.63-35.81-61.26l-166.8-93.89c-22-12.35-48.1-12.16-69.95 0.59-21.81 12.75-34.81 35.43-34.81 60.67V581.7c0.01 25.23 13.02 47.92 34.82 60.67z m25.43-248.46c0-5.02 3.12-7.59 4.98-8.67 1.1-0.65 2.9-1.43 5.1-1.43 1.47 0 3.14 0.35 4.9 1.35l166.8 93.89c4.43 2.49 5.1 6.55 5.1 8.75s-0.67 6.26-5.1 8.75l-166.8 93.89c-4.41 2.47-8.18 1-10-0.08-1.86-1.08-4.98-3.65-4.98-8.67V393.91z" fill="#888888" p-id="2569"></path></svg>