<?xml version="1.0" standalone="no"?><!DOCTYPE svg PUBLIC "-//W3C//DTD SVG 1.1//EN" "http://www.w3.org/Graphics/SVG/1.1/DTD/svg11.dtd"><svg t="1637558668528" class="icon" viewBox="0 0 1024 1024" version="1.1" xmlns="http://www.w3.org/2000/svg" p-id="1570" xmlns:xlink="http://www.w3.org/1999/xlink" width="128" height="128"><defs><style type="text/css"></style></defs><path d="M544.768 507.904V251.904c-2.048-16.384-16.384-28.672-30.72-28.672-18.432 0-32.768 14.336-32.768 32.768v251.904c-43.008 14.336-73.728 53.248-73.728 102.4s30.72 88.064 73.728 102.4V772.096c2.048 16.384 16.384 28.672 30.72 28.672 18.432 0 32.768-14.336 32.768-32.768v-55.296c43.008-14.336 73.728-53.248 73.728-102.4 0-47.104-30.72-88.064-73.728-102.4zM512 653.312c-24.576 0-43.008-18.432-43.008-43.008 0-24.576 18.432-43.008 43.008-43.008s43.008 18.432 43.008 43.008c0 24.576-18.432 43.008-43.008 43.008z" p-id="1571"></path><path d="M854.016 0H169.984C75.776 0 0 75.776 0 169.984v681.984C0 948.224 75.776 1024 169.984 1024h681.984c94.208 0 169.984-75.776 169.984-169.984V169.984C1024 75.776 948.224 0 854.016 0z m106.496 854.016v6.144c-4.096 55.296-49.152 100.352-106.496 100.352H163.84c-55.296-4.096-100.352-49.152-100.352-106.496V163.84c4.096-55.296 49.152-100.352 106.496-100.352H858.112c55.296 4.096 100.352 49.152 100.352 106.496v684.032z" p-id="1572"></path><path d="M288.768 317.44v-65.536c-2.048-16.384-16.384-28.672-30.72-28.672-18.432 0-32.768 14.336-32.768 32.768v61.44c-43.008 14.336-73.728 53.248-73.728 102.4s30.72 88.064 73.728 102.4v249.856c2.048 16.384 16.384 28.672 30.72 28.672 18.432 0 32.768-14.336 32.768-32.768v-245.76c43.008-14.336 73.728-53.248 73.728-102.4s-30.72-88.064-73.728-102.4z m-32.768 145.408c-24.576 0-43.008-18.432-43.008-43.008 0-24.576 18.432-43.008 43.008-43.008s43.008 18.432 43.008 43.008c0 22.528-20.48 43.008-43.008 43.008zM798.72 317.44v-65.536c-2.048-16.384-16.384-28.672-30.72-28.672-18.432 0-32.768 14.336-32.768 32.768v61.44c-43.008 14.336-73.728 53.248-73.728 102.4s30.72 88.064 73.728 102.4v249.856c2.048 16.384 16.384 28.672 30.72 28.672 18.432 0 32.768-14.336 32.768-32.768v-245.76c43.008-14.336 73.728-53.248 73.728-102.4s-30.72-88.064-73.728-102.4z m-32.768 145.408c-24.576 0-43.008-18.432-43.008-43.008 0-24.576 18.432-43.008 43.008-43.008s43.008 18.432 43.008 43.008c0 22.528-18.432 43.008-43.008 43.008z" p-id="1573"></path></svg>