<?xml version="1.0" standalone="no"?><!DOCTYPE svg PUBLIC "-//W3C//DTD SVG 1.1//EN" "http://www.w3.org/Graphics/SVG/1.1/DTD/svg11.dtd"><svg t="1637558816904" class="icon" viewBox="0 0 1024 1024" version="1.1" xmlns="http://www.w3.org/2000/svg" p-id="6972" xmlns:xlink="http://www.w3.org/1999/xlink" width="128" height="128"><defs><style type="text/css"></style></defs><path d="M872.448 608.768L748.032 282.112c-5.12-12.8-17.408-21.504-31.232-21.504-13.824 0-26.624 8.704-31.232 21.504L561.152 608.768c-3.072 8.192-3.072 17.408 1.024 25.6 3.584 8.192 10.24 14.336 18.944 17.408 4.096 1.536 7.68 2.048 11.776 2.048 4.608 0 9.216-1.024 13.824-3.072 8.192-3.584 14.336-10.24 17.408-18.944l36.864-97.28h111.616l36.864 97.28c6.656 17.408 26.112 26.112 43.52 19.456 8.192-3.072 14.848-9.216 18.944-17.408s3.584-16.384 0.512-25.088zM747.008 468.48h-60.416l30.208-79.872 30.208 79.872zM344.064 287.232c-101.888 0-184.832 82.944-184.832 184.832 0 101.888 82.944 184.832 184.832 184.832 49.152 0 95.744-19.456 130.56-54.272s54.272-81.408 54.272-130.56c0-101.888-82.944-184.832-184.832-184.832z m117.76 184.832c0 31.232-12.288 60.928-34.304 82.944-22.016 22.016-51.712 34.304-82.944 34.304v7.68-7.68c-31.232 0-60.928-12.288-82.944-34.304-22.016-22.016-34.304-51.712-34.304-82.944 0-65.024 52.736-117.76 117.76-117.76 64 0.512 116.736 53.248 116.736 117.76z" p-id="6973"></path><path d="M913.408 813.056H120.32c-53.76 0-97.28-43.52-97.28-97.28V204.288c0-53.76 43.52-97.28 97.28-97.28h792.576c53.76 0 97.28 43.52 97.28 97.28v511.488c0.512 53.76-43.008 97.28-96.768 97.28zM120.32 178.688c-14.336 0-25.6 11.264-25.6 25.6v511.488c0 14.336 11.264 25.6 25.6 25.6h792.576c13.824 0 25.6-11.776 25.6-25.6V204.288c0-14.336-11.264-25.6-25.6-25.6H120.32zM748.032 960H285.696c-22.528 0-40.96-18.432-40.96-40.96s18.432-40.96 40.96-40.96H747.52c22.528 0 40.96 18.432 40.96 40.96 0.512 22.528-17.92 40.96-40.448 40.96z" p-id="6974"></path></svg>