<?xml version="1.0" standalone="no"?><!DOCTYPE svg PUBLIC "-//W3C//DTD SVG 1.1//EN" "http://www.w3.org/Graphics/SVG/1.1/DTD/svg11.dtd"><svg t="1637558697504" class="icon" viewBox="0 0 1024 1024" version="1.1" xmlns="http://www.w3.org/2000/svg" p-id="2708" xmlns:xlink="http://www.w3.org/1999/xlink" width="128" height="128"><defs><style type="text/css"></style></defs><path d="M928 256h-88L489.6 69.76l-4.16-1.92c-29.6-10.56-62.72 0.64-78.88 26.88L331.52 256h-80.48l-18.56-111.84A95.632 95.632 0 0 0 137.76 64H96c-17.6 0-32 14.4-32 32s14.4 32 32 32h41.76c15.68 0 28.96 11.2 31.52 26.72l78.24 468.96a95.488 95.488 0 0 0 94.72 80.16H800c17.6 0 32-14.4 32-32s-14.4-32-32-32H342.24c-15.68 0-28.96-11.2-31.52-26.72L293.76 512H864c17.6 0 32-14.4 32-32s-14.4-32-32-32H283.04l-21.28-128H928c17.6 0 32-14.4 32-32s-14.4-32-32-32zM461.28 128.48c0.32-0.32 0.96-0.48 1.6-0.48l240.8 128H402.08l59.2-127.52zM288 768c-52.96 0-96 43.04-96 96s43.04 96 96 96 96-43.04 96-96-43.04-96-96-96z m0 128c-17.6 0-32-14.4-32-32s14.4-32 32-32 32 14.4 32 32-14.4 32-32 32zM768 768c-52.96 0-96 43.04-96 96s43.04 96 96 96 96-43.04 96-96-43.04-96-96-96z m0 128c-17.6 0-32-14.4-32-32s14.4-32 32-32 32 14.4 32 32-14.4 32-32 32z" p-id="2709"></path></svg>